name D:\school\WTK\thesis\model\3dpredictsim\Results\MidTarsalJoint\Fal_s1_bCst_PF_Song2011_ls150_MT_nl_Song2011_MTP_Mu5_ig24.mot
datacolumns 128
datarows 4
range 0.55078437 0.58383143
endheader
time	pelvis_tilt	pelvis_list	pelvis_rotation	pelvis_tx	pelvis_ty	pelvis_tz	hip_flexion_l	hip_adduction_l	hip_rotation_l	hip_flexion_r	hip_adduction_r	hip_rotation_r	knee_angle_l	knee_angle_r	ankle_angle_l	ankle_angle_r	subtalar_angle_l	subtalar_angle_r	tmt_angle_l	tmt_angle_r	mtp_angle_l	mtp_angle_r	lumbar_extension	lumbar_bending	lumbar_rotation	arm_flex_l	arm_add_l	arm_rot_l	arm_flex_r	arm_add_r	arm_rot_r	elbow_flex_l	elbow_flex_r	pro_sup_l	pro_sup_r	glut_med1_l/activation	glut_med2_l/activation	glut_med3_l/activation	glut_min1_l/activation	glut_min2_l/activation	glut_min3_l/activation	semimem_l/activation	semiten_l/activation	bifemlh_l/activation	bifemsh_l/activation	sar_l/activation	add_long_l/activation	add_brev_l/activation	add_mag1_l/activation	add_mag2_l/activation	add_mag3_l/activation	tfl_l/activation	pect_l/activation	grac_l/activation	glut_max1_l/activation	glut_max2_l/activation	glut_max3_l/activation	iliacus_l/activation	psoas_l/activation	quad_fem_l/activation	gem_l/activation	peri_l/activation	rect_fem_l/activation	vas_med_l/activation	vas_int_l/activation	vas_lat_l/activation	med_gas_l/activation	lat_gas_l/activation	soleus_l/activation	tib_post_l/activation	flex_dig_l/activation	flex_hal_l/activation	tib_ant_l/activation	per_brev_l/activation	per_long_l/activation	per_tert_l/activation	ext_dig_l/activation	ext_hal_l/activation	ercspn_l/activation	intobl_l/activation	extobl_l/activation	glut_med1_r/activation	glut_med2_r/activation	glut_med3_r/activation	glut_min1_r/activation	glut_min2_r/activation	glut_min3_r/activation	semimem_r/activation	semiten_r/activation	bifemlh_r/activation	bifemsh_r/activation	sar_r/activation	add_long_r/activation	add_brev_r/activation	add_mag1_r/activation	add_mag2_r/activation	add_mag3_r/activation	tfl_r/activation	pect_r/activation	grac_r/activation	glut_max1_r/activation	glut_max2_r/activation	glut_max3_r/activation	iliacus_r/activation	psoas_r/activation	quad_fem_r/activation	gem_r/activation	peri_r/activation	rect_fem_r/activation	vas_med_r/activation	vas_int_r/activation	vas_lat_r/activation	med_gas_r/activation	lat_gas_r/activation	soleus_r/activation	tib_post_r/activation	flex_dig_r/activation	flex_hal_r/activation	tib_ant_r/activation	per_brev_r/activation	per_long_r/activation	per_tert_r/activation	ext_dig_r/activation	ext_hal_r/activation	ercspn_r/activation	intobl_r/activation	extobl_r/activation	
          0.55078437	         -2.92951298	          2.05532985	         -4.59976832	          0.68848046	          0.92002955	          0.00213452	         28.89802413	          3.47642948	         -3.26215005	        -16.87845919	         -0.58437516	          6.18265173	        -11.27405832	         -6.84833330	          4.98067347	         -1.70796983	         -3.33687389	          6.69906354	         -0.01116977	          2.76113609	          7.64156789	         24.01078394	         -2.33892416	         -0.50361567	          1.93107221	         -4.53306843	        -13.47325506	          5.99221745	          4.77098113	        -13.45512529	         15.63690189	         16.95936227	         34.03331288	         86.51662706	         86.51662706	          0.05917970	          0.05917973	          0.05000024	          0.05917981	          0.05917979	          0.05917862	          0.13169999	          0.05918051	          0.21184785	          0.05000050	          0.05000024	          0.13746997	          0.31086065	          0.11807618	          0.17184338	          0.10901429	          0.05000022	          0.05027604	          0.12132405	          0.05000060	          0.05000093	          0.15110741	          0.05000619	          0.05000033	          0.27037932	          0.26946977	          0.13511863	          0.05000310	          0.13271903	          0.13082944	          0.11725250	          0.05470804	          0.05401894	          0.05579674	          0.05000004	          0.05918052	          0.05917941	          0.53208778	          0.25229895	          0.16396999	          0.20897141	          0.43677871	          0.20462882	          0.05917980	          0.10788408	          0.09839814	          0.28022941	          0.09812504	          0.07004456	          0.29617890	          0.19209233	          0.09850214	          0.05000223	          0.05000047	          0.05000024	          0.05838381	          0.09937994	          0.10160511	          0.08006488	          0.05000350	          0.05000636	          0.05000213	          0.31462169	          0.05022499	          0.05000216	          0.05000321	          0.05000257	          0.05000238	          0.38360467	          0.65018323	          0.05000024	          0.05000050	          0.05000048	          0.22089010	          0.05001039	          0.05000912	          0.05000618	          0.27120610	          0.38124663	          0.31089652	          0.32330383	          0.33859437	          0.42016837	          0.05000006	          0.05502873	          0.09034678	          0.05000039	          0.05000012	          0.05000043	          0.05000003	          0.05000036	          0.05002353	
          0.56180006	         -2.92464235	          2.14946029	         -4.87462709	          0.70507359	          0.91913093	          0.00191532	         28.27193250	          3.82193882	         -3.03009768	        -16.73199035	         -0.87667317	          5.98052836	        -11.53665684	         -8.78003761	          4.34555669	         -2.33480999	         -3.68262485	          7.65344411	         -0.04804319	          2.35333455	          7.77335058	         25.49320714	         -2.13753272	         -0.71023923	          1.99927359	         -5.36128727	        -13.47768352	          5.69899049	          4.47448042	        -13.46171154	         15.91490256	         16.58846150	         35.16893325	         86.51662706	         86.51662706	          0.05000002	          0.05000008	          0.11316624	          0.05000010	          0.05000010	          0.05000012	          0.11127154	          0.05000085	          0.17898690	          0.05000026	          0.05919944	          0.11614640	          0.28973930	          0.33833600	          0.22077116	          0.12003806	          0.05000052	          0.07125499	          0.14301004	          0.05010980	          0.07846404	          0.13298297	          0.05000026	          0.05918312	          0.50066288	          0.22767069	          0.11415962	          0.06339813	          0.15402538	          0.15440596	          0.13018395	          0.05918144	          0.06329457	          0.05000008	          0.05917978	          0.05000088	          0.05000112	          0.49353060	          0.28451298	          0.20152786	          0.17655668	          0.42438098	          0.17288772	          0.05000006	          0.09114952	          0.08313500	          0.23676137	          0.08290430	          0.05917965	          0.25023693	          0.16229578	          0.08322293	          0.05000426	          0.05000112	          0.05000214	          0.05000020	          0.08396479	          0.19543709	          0.06764817	          0.05923913	          0.05918191	          0.05918373	          0.26581903	          0.09802836	          0.05000899	          0.05000879	          0.05000824	          0.05818542	          0.32410147	          0.60023357	          0.05006001	          0.05917988	          0.05917709	          0.18662698	          0.14081884	          0.14249922	          0.14235684	          0.22913763	          0.32210913	          0.26267162	          0.28344426	          0.28607526	          0.37814262	          0.05000005	          0.05000013	          0.10480825	          0.05000014	          0.05000004	          0.05000023	          0.05777227	          0.06777598	          0.05386888	
          0.57281574	         -2.91596095	          2.24783869	         -5.12405888	          0.72194590	          0.91828388	          0.00171307	         27.50931087	          4.07310943	         -2.76704006	        -16.50560395	         -1.17179585	          5.76669202	        -11.99593389	        -10.83545940	          3.84638605	         -3.13828466	         -4.05337780	          8.57791532	         -0.09698918	          1.87577155	          7.86631205	         26.97956951	         -1.91651887	         -0.92779097	          2.05634156	         -6.21686680	        -13.48961365	          5.46037628	          4.10513364	        -13.46544665	         16.12824956	         16.26880976	         36.28884345	         86.51662706	         86.51662706	          0.25672716	          0.25033995	          0.31605279	          0.37644014	          0.24267724	          0.23504861	          0.09986490	          0.05000679	          0.15124235	          0.07181457	          0.05001738	          0.09813027	          0.24479612	          0.28585472	          0.18652618	          0.11424655	          0.05000104	          0.06020369	          0.12082760	          0.05000073	          0.07581349	          0.11235542	          0.05000181	          0.05000303	          0.42300200	          0.19235545	          0.24320923	          0.05356410	          0.13013370	          0.13045527	          0.10999044	          0.05000163	          0.05347678	          0.05332699	          0.05000032	          0.05000118	          0.05000126	          0.57088858	          0.31795435	          0.17026780	          0.39596477	          0.47028789	          0.14607039	          0.06416934	          0.11614094	          0.07023942	          0.31734384	          0.07004455	          0.05000014	          0.33148076	          0.13712123	          0.07031377	          0.05000231	          0.05000033	          0.05000023	          0.05000064	          0.07094163	          0.16512197	          0.05715522	          0.05005043	          0.05000283	          0.05000368	          0.30050378	          0.08284022	          0.05000125	          0.05000223	          0.05000124	          0.05000074	          0.27382880	          0.56968043	          0.05000016	          0.05000086	          0.05000027	          0.15767821	          0.11897569	          0.12039543	          0.12027512	          0.19359467	          0.27214479	          0.22192699	          0.23947757	          0.24170069	          0.31948700	          0.05000002	          0.08908147	          0.13336965	          0.05000023	          0.05000017	          0.05000027	          0.05061365	          0.05726284	          0.05000008	
          0.58383143	         -2.90552793	          2.33950500	         -5.34212758	          0.73889386	          0.91750985	          0.00148568	         26.68371089	          4.29990770	         -2.50015853	        -16.16656580	         -1.46054288	          5.56071790	        -12.40359052	        -13.04615403	          3.45969124	         -4.14158544	         -4.42941463	          9.48325950	         -0.10712870	          1.36073270	          8.06448749	         28.44070120	         -1.69822387	         -1.14453923	          2.10427337	         -7.05324179	        -13.50173959	          5.28013279	          3.69729308	        -13.47569008	         16.30114340	         15.97490094	         37.37381205	         86.51662706	         86.51662706	          0.34818524	          0.34511522	          0.36687653	          0.31804949	          0.22547711	          0.23030666	          0.09052355	          0.08762557	          0.12874257	          0.06090055	          0.05000088	          0.08290873	          0.20682437	          0.24151442	          0.18077417	          0.16204616	          0.05000043	          0.05086642	          0.10621125	          0.20596769	          0.16266791	          0.15097208	          0.05000019	          0.05000017	          0.35738758	          0.16251810	          0.20548873	          0.05000008	          0.12178661	          0.15492322	          0.09293190	          0.05000006	          0.05000010	          0.05000002	          0.05000003	          0.05000024	          0.05000020	          0.63043179	          0.27718163	          0.15293008	          0.57969797	          0.50111037	          0.21243403	          0.08700046	          0.09812561	          0.05934416	          0.27175407	          0.05917959	          0.05000023	          0.28006308	          0.11585163	          0.05940704	          0.05000351	          0.05000040	          0.05000034	          0.05000024	          0.05993781	          0.16580335	          0.08561990	          0.05000408	          0.05000633	          0.05000227	          0.28999129	          0.07004708	          0.05000200	          0.05000464	          0.05000299	          0.05000229	          0.23135357	          0.51605118	          0.05000046	          0.05000108	          0.05000023	          0.13321983	          0.13346147	          0.13109824	          0.10973389	          0.16356499	          0.22993072	          0.18750251	          0.20233076	          0.20420913	          0.26992951	          0.05023825	          0.07526398	          0.13479058	          0.05000036	          0.12494441	          0.05000037	          0.07701681	          0.05000002	          0.05000006	
